# xmcd CD database file
#
# Track frame offsets: 
#        150
#        10267
#        21537
#        32856
#        45448
#        56572
#        65604
#        76236
#        86131
#        101448
#        110642
#        121124
#        133046
#        145785
#        156478
#        182253
#        196050
#        212007
#
# Disc length: 3240 seconds
#
# Revision: 8
# Processed by: cddbd v1.5.2PL0 Copyright (c) Steve Scherf et al.
# Submitted via: ExactAudioCopy v0.95b4
#
DISCID=060ca612,f30ca612,f40c7d12
DTITLE=Eric Clapton - Experience
DYEAR=1995
DGENRE=Rock
TTITLE0=I'm Your Witch Doctor
TTITLE1=For Your Love
TTITLE2=Boom Boom
TTITLE3=Good Morning Little Schoolgirl
TTITLE4=Miles Road
TTITLE5=I Ain't Got You
TTITLE6=A Certain Girl
TTITLE7=Tribute To Elmore
TTITLE8=Train Kept A Rolling
TTITLE9=Talking About You
TTITLE10=I Wish You Would
TTITLE11=Got To Hurry
TTITLE12=Freight Loader
TTITLE13=Let It Rock
TTITLE14=She's So Respectable
TTITLE15=You Can't Judge A Book By Looking At The Cover
TTITLE16=Louise
TTITLE17=Smokestack Ligtning
EXTD=
EXTT0=
EXTT1=
EXTT2=
EXTT3=
EXTT4=
EXTT5=
EXTT6=
EXTT7=
EXTT8=
EXTT9=
EXTT10=
EXTT11=
EXTT12=
EXTT13=
EXTT14=
EXTT15=
EXTT16=
EXTT17=
PLAYORDER=
